<?xml version="1.0" encoding="utf-8"?>
<svg viewBox="380.626220703125 80.47610473632812 20.961517333984375 15.825958251953125" width="20.961517333984375" height="15.825958251953125" xmlns="http://www.w3.org/2000/svg"><g transform="matrix(1, 0, 0, 1, -55.39265823364258, -32.393367767333984)"><path fill="#A7AAE1" d="M1614.7,426c0.2,0.2,0.4,0.5,0.6,0.7c0.5,0.7,1,1.3,1.2,1.9c0.5-0.3,0.9-0.7,1.2-1.1&#10;&#9;&#9;c0.3-0.4,0.6-0.9,0.8-1.3c0.3-0.7,0.4-1.4,0.5-2.2c0-0.2,0-0.5,0-0.7h-6.8h0C1613,424.2,1613.9,425.1,1614.7,426z" transform="matrix(0.26201924681663513, 0, 0, 0.26201924681663513, 27.24265480041504, 3.1096127033233643)"/><path fill="#A7AAE1" d="M1626,418.9h-51.8l-14.1,14.3l40,46.1l40-46.1L1626,418.9z M1574.8,420.5h50.6l12.7,12.9l-22,25.4l0,0&#10;&#9;&#9;l-15.9,18.3l-15.9-18.3l0,0l-22-25.4L1574.8,420.5z" transform="matrix(0.26201924681663513, 0, 0, 0.26201924681663513, 27.24265480041504, 3.1096127033233643)"/><path fill="#A7AAE1" d="M1566.6,433.2l0.9,1.1l5.6,6.3c-0.1-1.2-0.1-2.3,0-3.4c0.3-2.7,1.4-5,2.8-7c1.1-1.6,2.5-2.9,3.8-4&#10;&#9;&#9;c1.4-1.1,2.8-1.9,4-2.5c0.3-0.1,0.6-0.3,0.9-0.4h-7.7h0h-0.6l-0.4,0.4l-8.2,8.4L1566.6,433.2z" transform="matrix(0.26201924681663513, 0, 0, 0.26201924681663513, 27.24265480041504, 3.1096127033233643)"/><path fill="#A7AAE1" d="M1596.5,447.3c-4.8-0.2-10.9-0.2-15.6-1.1c-1.6-0.3-2.9-0.7-4.1-1.2l8.3,9.4c0.2-0.8,0.6-1.5,1.3-1.9&#10;&#9;&#9;c0.5-0.3,1-0.6,1.6-0.7s1.3-0.2,2-0.3c0.7,0,1.5,0.1,2.2,0.2c0.8,0.2,1.5,0.4,2.2,0.7c1.8,0.8,3.6,2.1,4.7,3.8c0.7,0,1.3,0,1.9,0&#10;&#9;&#9;c3.1-0.1,5.7-0.3,7.9-0.7c0.4-0.1,0.8-0.2,1.2-0.2c0.4-0.1,0.8-0.2,1.1-0.3c0.7-0.2,1.3-0.4,1.9-0.6c1.6-0.7,2.5-1.6,2.5-2.7&#10;&#9;&#9;c0.1-1.9-2.5-2.8-6.7-3.4c-2.4-0.3-5.2-0.5-8.5-0.6C1599.3,447.4,1597.9,447.3,1596.5,447.3z" transform="matrix(0.26201924681663513, 0, 0, 0.26201924681663513, 27.24265480041504, 3.1096127033233643)"/><path fill="#A7AAE1" d="M1595.2,423.8c-1.8,0.2-3.8,0.6-5.6,1.3c-2.9,1.1-5.3,2.7-5.6,5.1c0,0.3,0,0.6,0,0.9c0,0.3,0.1,0.6,0.2,0.9&#10;&#9;&#9;c0.2,0.6,0.4,1.1,0.8,1.6c0.4,0.5,0.8,0.9,1.3,1.2c0.5,0.3,1.1,0.6,1.7,0.9c0.3,0.1,0.7,0.2,1,0.3c0.7,0.2,1.4,0.4,2.2,0.5&#10;&#9;&#9;c0.4,0.1,0.8,0.1,1.2,0.2c0.8,0.1,1.6,0.2,2.4,0.2c0.8,0,1.7,0.1,2.5,0.1c0.4,0,0.8,0,1.2,0c0.9,0,2,0,3.1-0.1c0.6,0,1.1,0,1.7,0&#10;&#9;&#9;c0.9,0,1.8,0,2.7,0.1c0.3,0,0.6,0,0.9,0c0.6,0,1.2,0.1,1.9,0.1c0.3,0,0.6,0.1,0.9,0.1c0.3,0,0.6,0.1,0.9,0.1&#10;&#9;&#9;c0.6,0.1,1.2,0.2,1.8,0.3c0.6,0.1,1.2,0.2,1.8,0.4s1.2,0.3,1.7,0.5c1.1,0.4,2.2,0.8,3.1,1.4c0.5,0.3,0.9,0.6,1.4,0.9&#10;&#9;&#9;c1.3,1,2.3,2.3,3,3.9l9.2-10.4l0.9-1.1l-1-1l-8-8.1v9.6h0c-3.8,0-7.7,0-11.5,0c-0.1-0.6-0.2-1.1-0.3-1.6c-0.1-0.5-0.3-1-0.5-1.4&#10;&#9;&#9;c-1.7-4-5.4-5.8-9.1-6.5c-2.1-0.4-4.1-0.5-5.9-0.5C1596.6,423.7,1596,423.8,1595.2,423.8z" transform="matrix(0.26201924681663513, 0, 0, 0.26201924681663513, 27.24265480041504, 3.1096127033233643)"/><path fill="#A7AAE1" d="M1606.1,460c-4,0.5-8.5,0.6-13.4-0.1c-1-0.1-2-0.3-3-0.5l9.3,10.5l1.1,1.3l1.1-1.3l9.5-10.8&#10;&#9;&#9;C1609.3,459.5,1607.7,459.8,1606.1,460z" transform="matrix(0.26201924681663513, 0, 0, 0.26201924681663513, 27.24265480041504, 3.1096127033233643)"/></g></svg>